<svg width="495.32" height="128.4" xmlns="http://www.w3.org/2000/svg">

 <g>
  <title>background</title>
  <rect fill="none" id="canvas_background" height="130.4" width="497.32" y="-1" x="-1"/>
 </g>
 <g>
  <title>Layer 1</title>
  <path id="svg_1" d="m158.8,98.9l6.2,-14.4c6.7,5 15.6,7.6 24.4,7.6c6.5,0 10.6,-2.5 10.6,-6.3c-0.1,-10.6 -38.9,-2.3 -39.2,-28.9c-0.1,-13.5 11.9,-23.9 28.9,-23.9c10.1,0 20.2,2.5 27.4,8.2l-5.8,14.7c-6.6,-4.2 -14.8,-7.2 -22.6,-7.2c-5.3,0 -8.8,2.5 -8.8,5.7c0.1,10.4 39.2,4.7 39.6,30.1c0,13.8 -11.7,23.5 -28.5,23.5c-12.3,0 -23.6,-2.9 -32.2,-9.1m237.9,-19.6c-3.1,5.4 -8.9,9.1 -15.6,9.1c-9.9,0 -17.9,-8 -17.9,-17.9c0,-9.9 8,-17.9 17.9,-17.9c6.7,0 12.5,3.7 15.6,9.1l17.1,-9.5c-6.4,-11.4 -18.7,-19.2 -32.7,-19.2c-20.7,0 -37.5,16.8 -37.5,37.5s16.8,37.5 37.5,37.5c14.1,0 26.3,-7.7 32.7,-19.2l-17.1,-9.5zm-168.6,-77.4l21.4,0l0,104.7l-21.4,0l0,-104.7zm215.5,104.7l0,-31.4l25.4,31.4l27.4,0l-32.3,-37.3l29.9,-34.8l-26.2,0l-24.2,28.9l0,-61.5l-21.4,0l0,104.7l21.4,0zm-130.5,-27.1c-3.1,5.1 -9.5,8.9 -16.7,8.9c-9.9,0 -17.9,-8 -17.9,-17.9c0,-9.9 8,-17.9 17.9,-17.9c7.2,0 13.6,4 16.7,9.2l0,17.7zm0,-45l0,8.5c-3.5,-5.9 -12.2,-10 -21.3,-10c-18.8,0 -33.6,16.6 -33.6,37.4c0,20.8 14.8,37.6 33.6,37.6c9.1,0 17.8,-4.1 21.3,-10l0,8.5l21.4,0l0,-72l-21.4,0zm-286.6,44.9c0,7.3 -5.9,13.2 -13.2,13.2c-7.3,0 -13.2,-5.9 -13.2,-13.2c0,-7.3 5.9,-13.2 13.2,-13.2l13.2,0l0,13.2zm6.6,0c0,-7.3 5.9,-13.2 13.2,-13.2c7.3,0 13.2,5.9 13.2,13.2l0,33c0,7.3 -5.9,13.2 -13.2,13.2c-7.3,0 -13.2,-5.9 -13.2,-13.2l0,-33zm13.2,-53c-7.3,0 -13.2,-5.9 -13.2,-13.2c0,-7.3 5.9,-13.2 13.2,-13.2c7.3,0 13.2,5.9 13.2,13.2l0,13.2l-13.2,0zm0,6.7c7.3,0 13.2,5.9 13.2,13.2c0,7.3 -5.9,13.2 -13.2,13.2l-33.1,0c-7.3,0 -13.2,-5.9 -13.2,-13.2c0,-7.3 5.9,-13.2 13.2,-13.2l33.1,0zm52.9,13.2c0,-7.3 5.9,-13.2 13.2,-13.2c7.3,0 13.2,5.9 13.2,13.2c0,7.3 -5.9,13.2 -13.2,13.2l-13.2,0l0,-13.2zm-6.6,0c0,7.3 -5.9,13.2 -13.2,13.2c-7.3,0 -13.2,-5.9 -13.2,-13.2l0,-33.1c0,-7.3 5.9,-13.2 13.2,-13.2c7.3,0 13.2,5.9 13.2,13.2l0,33.1zm-13.2,52.9c7.3,0 13.2,5.9 13.2,13.2c0,7.3 -5.9,13.2 -13.2,13.2c-7.3,0 -13.2,-5.9 -13.2,-13.2l0,-13.2l13.2,0zm0,-6.6c-7.3,0 -13.2,-5.9 -13.2,-13.2c0,-7.3 5.9,-13.2 13.2,-13.2l33.1,0c7.3,0 13.2,5.9 13.2,13.2c0,7.3 -5.9,13.2 -13.2,13.2l-33.1,0z"/>
 </g>
</svg>